<?xml version="1.0" encoding="UTF-8"?>
<svg xmlns="http://www.w3.org/2000/svg" width="512" height="512" viewBox="0 0 512 512">
  <defs>
    <filter id="shadow" x="-20%" y="-20%" width="140%" height="140%">
      <feDropShadow dx="0" dy="6" stdDeviation="10" flood-color="#1a1a1a" flood-opacity="0.1"/>
    </filter>
  </defs>
  <rect x="56" y="56" width="400" height="400" rx="32" ry="32" fill="#ffffff" stroke="#e2e6ef" stroke-width="4" filter="url(#shadow)"/>
  <rect x="56" y="56" width="400" height="10" rx="32" ry="32" fill="#0B2265"/>
  <rect x="56" y="60" width="400" height="6" fill="#0B2265"/>
  
  <!-- Logo Section centered at x=196, y=121 -->
  <g transform="translate(196, 121)">
    <circle cx="60" cy="60" r="56" fill="#0B2265" stroke="#F2C94C" stroke-width="4" />
    <polygon points="60,20 64,31 76,31 67,38 70,50 60,42 50,50 53,38 44,31 56,31" fill="#F2C94C" />
    <path d="M 46,48 L 74,48 L 74,66 L 59,86 L 50,86 L 46,68 Z" fill="#F2C94C" opacity="0.85" />
    <circle cx="50" cy="55" r="2" fill="#0B2265" />
    <text x="60" y="100" text-anchor="middle" fill="#FFFFFF" font-family="Inter, system-ui, -apple-system, sans-serif" font-size="9" font-weight="800" letter-spacing="0.5">BOYS STATE</text>
    <text x="60" y="110" text-anchor="middle" fill="#F2C94C" font-family="Inter, system-ui, -apple-system, sans-serif" font-size="8" font-weight="700" letter-spacing="1">NEVADA</text>
  </g>

  <line x1="120" y1="290" x2="392" y2="290" stroke="#e2e6ef" stroke-width="3"/>
  <text x="256" y="330" text-anchor="middle" fill="#1a1a1a" font-family="Manrope, Inter, Arial, sans-serif" font-size="28" font-weight="700">Oratorical Scholarship Winner</text>
  <text x="256" y="368" text-anchor="middle" fill="#4a4a4a" font-family="Inter, Arial, sans-serif" font-size="22" font-weight="500">Nevada Boys State</text>
  <text x="256" y="410" text-anchor="middle" fill="#0B2265" font-family="Inter, Arial, sans-serif" font-size="20" font-weight="600">2026</text>
</svg>
