<svg xmlns="http://www.w3.org/2000/svg" viewBox="105.4 350.83 391.58 80"><title>DECA Logo Blue</title><path fill="#0071ce" d="M172.39 391.27c-14.25-19-40.27-40.44-40.27-40.44 34.29 9.32 52.22 26.2 52.22 26.2C180 382.48 172.56 391.45 172.39 391.27Zm-41.32-39.74s-19.7 27.08-25.67 52.75c0 .35 10.54-15.65 39.56-40.26C145.13 364 139.51 358.39 131.07 351.53Zm-25.15 54s22.51 17.76 52.93 25.32c0-.18-26-19.87-41-39.38C117.88 391.62 105.92 405.51 105.92 405.51Zm40.62 13.37 13.89 11.95s19-26 24.44-52.75C184.87 378.26 162.89 407.09 146.54 418.88Zm55.11-62.58H229c22 0 37.2 15.1 37.2 34.8v.2c0 19.7-15.2 35-37.2 35h-27.3Zm15.4 13.9v42.2H229c12.6 0 21.1-8.5 21.1-20.9v-.2c0-12.4-8.5-21.1-21.1-21.1Zm62.8-13.9h52.8V370h-37.5v14.2h33v13.7h-33v14.7h38v13.7h-53.3Zm63.9 35.2v-.2c0-19.9 15-36.2 36.5-36.2 13.2 0 21.1 4.4 27.6 10.8l-9.8 11.3c-5.4-4.9-10.9-7.9-17.9-7.9-11.8 0-20.3 9.8-20.3 21.8v.2c0 12 8.3 22 20.3 22 8 0 12.9-3.2 18.4-8.2l9.8 9.9c-7.2 7.71-15.2 12.51-28.7 12.51C359.05 427.51 343.75 411.6 343.75 391.5Zm100.9-35.7h14.2l30 70.5h-16.1l-6.4-15.7h-29.6l-6.4 15.7h-15.7Zm16.2 41.2-9.3-22.7-9.3 22.7Zm31.95 27.13v0a2.1 2.1 0 0 1 2.09-2.1A2.08 2.08 0 0 1 497 424.1h0a2.1 2.1 0 0 1-2.09 2.1A2.08 2.08 0 0 1 492.8 424.13Zm3.94 0h0a1.84 1.84 0 0 0-1.85-1.86 1.86 1.86 0 0 0-1.85 1.87v0a1.85 1.85 0 1 0 3.7 0Zm-2.66-1.1h1c.46 0 .81.23.81.67a.63.63 0 0 1-.49.65l.56.8h-.49l-.5-.73h-.45v.73h-.4Zm.92 1.05c.28 0 .43-.14.43-.34s-.15-.35-.43-.35h-.52v.69Z"/></svg>