<?xml version="1.0" encoding="UTF-8" standalone="no"?>
<svg xmlns:rdf="http://www.w3.org/1999/02/22-rdf-syntax-ns#" xmlns="http://www.w3.org/2000/svg" xml:space="preserve" height="109.96" viewBox="0 0 370.29376 109.96375" width="370.29" version="1.1" xmlns:cc="http://creativecommons.org/ns#" xmlns:dc="http://purl.org/dc/elements/1.1/"><g transform="matrix(1.25 0 0 -1.25 -51.678 291.33)"><path d="m42.386 232.16v-1.8734c14.09-1.996 14.208-5.7429 14.561-18.597v-27.959c0-9.984-3.7588-37.942 32.642-37.942 26.069 0 32.528 16.35 32.88 32.452l0.70626 27.333c0.467 16.448-2.032 24.708 8.575 24.708 10.608 0 8.3594-8.3655 8.3594-20.838v-18.722c0-28.332 0.58738-39.817-15.266-41.564v-1.8719h35.111v1.8719c-17.027 3.618-16.323 9.9881-16.323 40.939v22.966c19.844-22.713 40.747-42.252 59.536-65.844l1.5266 0.375c-0.586 27.211 0.46875 54.887 0.46875 68.714 0 8.557 1.4058 13.958 8.8578 13.958 8.111 0 7.5302-5.766 7.8812-18.575v-43.936c-0.353-12.852-0.47051-16.6-14.563-18.597v-1.8719h57.905l6.6906 23.219-1.5266 0.74531c-9.04-15.978-11.976-21.842-29.825-20.467l-6.5875 1.1203c-1.761 5.992-1.761 12.608-1.761 18.847v40.941c0 12.854 1.9669 18.633 13.597 18.633s15.295-9.4906 18.823-18.777l26.548-64.328h2.3188l21.766 53.514c7.283 18.446 10.69 28.497 21.733 29.514v1.9094h-33.13v-1.9094c17.858-2.799 15.977-6.9971 5.875-33.078l-13.864-36.006-18.795 49.109c-3.054 8.016-8.4593 18.195 8.1047 19.975v1.9094l-101.54 0.005v-1.8734c13.27-2.496 16.323-5.9899 16.441-17.847l0.58595-45.558-58.008 65.278h-41.712v-1.8734c16.439-1.623 17.614-8.8631 17.614-24.714v-13.105c0-15.227 2.4661-40.941-22.897-40.941-32.176 0-28.417 32.203-28.417 34.575v25.588c0 13.729 0.23419 16.225 15.617 18.597v1.8734h-40.511z" fill="#b10202"/></g></svg>
